<svg xmlns="http://www.w3.org/2000/svg" width="14in" height="8in" viewBox="0 0 1007.9 576"><path fill="#0c6" d="M0 89.1h1007.9V576H0z"/><path fill="#09f" d="M0 0h1007.9v89.1H0z"/><path fill="#3a1d00" stroke="#000" stroke-miterlimit="10" d="M0 312l145-75.6 165.7-66.3 28.6-12 86.9-17.9 62.3-2.7H576l431.9-33.5-616 17-96.5 19.2-95.9 36.6L0 231.5V312z"/><path fill="#630" d="M343.8 214l-22-1.3 4.9-33.7-1.3-61.9 18.3-2-4.8 52 4.9 46.9z"/><circle cx="332.7" cy="97.2" r="43" fill="#093"/><path fill="#630" d="M426.2 121h-10.9l2.4-12.5-.6-30.9 9.1-1-2.4 25.9 2.4 18.5z"/><circle cx="420.7" cy="67.7" r="21.4" fill="#093"/><path fill="#630" d="M675.6 141.4h-11l2.5-12.6-.7-30.9 9.2-1-2.5 26 2.5 18.5z"/><circle cx="670.1" cy="88" r="21.4" fill="#093"/><path fill="#630" d="M210.6 172.6l-17 5.9 3.8-24-1-48.9 14.5-1.6-3.9 41.1 3.6 27.5z"/><circle cx="202.2" cy="89.8" r="34" fill="#093"/><path fill="#630" d="M157.4 286.7h-24.8l5.6-28.5-1.5-69.9 20.7-2.3-5.5 58.8 5.5 41.9z"/><circle cx="144.9" cy="165.8" r="48.6" fill="#093"/><path fill="#630" d="M510.9 307.5l-22.4-25.9 3.2-31.3-1.7-76.9 22.8-2.5-6 64.6 4.1 72z"/><circle cx="499.1" cy="148.6" r="53.4" fill="#093"/><path fill="#630" d="M784.9 452.9l-32-2.2 4.5-79.8-2.4-110.2 32.7-3.6-8.6 92.7 5.8 103.1z"/><circle cx="768.1" cy="225.2" r="76.6" fill="#093"/><path fill="#06c" d="M278.7 218s78.2-25.4 163.6 34.5c0 0 113.9 55.9 156.5 115.5 0 0 213.2 151.8 227.2 208H92.4l37.8-75.8A103.1 103.1 0 0 1 266 452.6l34.7 16c40.9 19 88.5-10.3 88.8-55.4.1-34.3-27.5-71.4-129.4-92.2-223.9-45.6 18.6-103 18.6-103z"/><path fill="#fff" d="M11.2 0a7.7 7.7 0 0 0-2 4.9c0 11.2 30.3 20.5 70.1 22.3a21.1 21.1 0 0 0-4.7 12.9c0 16.5 21.6 30 48.1 30s48.1-13.5 48.1-30a19.9 19.9 0 0 0-.6-4.9 96.4 96.4 0 0 0 20.6 2.2 92.6 92.6 0 0 0 28.8-4.4 75.3 75.3 0 0 0 25.7 4.4c30.2 0 54.6-16.8 54.6-37.4H11.2zM473 0a7.7 7.7 0 0 0-2 4.9c0 11.2 30.3 20.5 70.1 22.3a21.1 21.1 0 0 0-4.7 12.9c0 16.5 21.6 30 48.1 30s48.2-13.5 48.2-30a20 20 0 0 0-.7-4.9 96.4 96.4 0 0 0 20.6 2.2 92.6 92.6 0 0 0 28.8-4.4 75.3 75.3 0 0 0 25.7 4.4c30.2 0 54.6-16.8 54.6-37.4H473z"/><path fill="#fff" d="M337.5 0a10.2 10.2 0 0 0-2.1 6c0 7 7.8 12.6 17.6 12.6a24.2 24.2 0 0 0 4.7-.5c7.3 9.9 22.4 16.6 39.9 16.6 12.6 0 24-3.5 32.1-9.2 4.7 12.3 13.7 20.7 24.1 20.7s19.4-8.5 24.1-21.1a33.9 33.9 0 0 0 15.1 3.5 34.7 34.7 0 0 0 14.9-3.4A46.7 46.7 0 0 0 576 49V0zm431.9 0a9.6 9.6 0 0 0-2.2 6c0 7 7.9 12.6 17.6 12.6a24.4 24.4 0 0 0 4.8-.5c7.3 9.9 22.4 16.6 39.8 16.6 12.7 0 24.1-3.5 32.2-9.2 4.7 12.3 13.7 20.7 24 20.7s19.5-8.5 24.2-21.1a33.5 33.5 0 0 0 15 3.5 34.8 34.8 0 0 0 15-3.4 46.6 46.6 0 0 0 43.8 30.6 46.7 46.7 0 0 0 24.3-6.8V0z"/><path d="M204.6 326.2s.7-6.6-2.9-6.6-10.2.7-10.2.7-2.7.8-6.8-3.2a3.6 3.6 0 0 0-3.1-1.5 3.4 3.4 0 0 0-2.2-.9h-3.3s-1.5-.5-1.8-.3-1.1-.9-1.6-.4-2-.1-2-.1l-1.4-.4s-.1-3-1.7-3.2c0 0-.5-2.4-1.4-2.8a8.7 8.7 0 0 1-2 1.5 5.1 5.1 0 0 0-3.3 2.7c-1 2-1.8 2.8-1.8 5.1s-2.9 4.2-2.9 4.2l-.4 2.2-1 1-.7 1.3-2.2.7-1.7 1.7.3.9-.6.7-.4-.4-.3 1.3-2.7 2.7-4.3 4.7-5 4.9-7.9 3.9s-5.1 1.6-6.8 1.1-13.5 1.9-13.5 1.9h-4.7l-4.5-1.4-3.5-.4-11.9-2.3s-14-3.1-24.5-1.4c0 0-7.7 2.5-9.3 3.2a28.6 28.6 0 0 1-11.9-6.7l-7.2-7.2s-15.2-8-5.8 4.9c0 0 7.4 4.2 9.1 7.7 0 0 7.9 5.9 7.9 8.6s-1.1 3.1-1.1 3.1-7.1 9.7-1.4 25.8c0 0-.8 13.4 0 17.5s-7.5 16.3-7.5 16.3-2.4 1.5-.4 7.3v1.7s0 2.9.9 2.9l-.6 4.5.6 2 .5 8.4a5.7 5.7 0 0 0 .2 3.1v1l.7 1.5 1.8 2.7.7-.8h2.4l2.4.8h4.6l2.6-.5v-.8h1.3l-1.3-1.4.9-.4-2.2-2.2s-1.4-2.5-3.5-1.8-3.6-7.7-3.6-7.7-1.3-8.5 1.9-14.9l.4-.5.5 1.3 2.1 5.1a11.3 11.3 0 0 0 3.3 7.6l3.5 6.4s.9 4.2 4 4.2l6.9.2 1.4-.8 1.5.3 1.2-.2.6-.9v-.9h1.6l-1.7-1.7-1.8-1-1.6-1.3s-.2-.4-1.1-.4h-2.2l-2.2.3s-1.7.9-5.7-10.3l.2-5.6s1.4-1.5 1.4-4.9c0 0 2.4-5.7 4.7-7.1s4.9-7 4.9-7v-.9l1.7-2.6 2.5-3.6 2.1-6.1a11.3 11.3 0 0 0 .6-6.9c-.8-3.8 5.1-3.8 7.3-1.1s10.7 7.5 10.7 7.5 24 11.4 31.3 9.5l1.5 13.4v4.9l-.2 6.3.4 4.1v2.4l-.5 1.6v1.8s-3.3 2.5 1.6 4l.7 7 .6.5-.3 3.9v2.3s.2 5 7.5 4.8 7.7 0 7.7 0l.7-1 1.7.4.5-1.2 1.3.3.4-.5-1.8-1.8v-1.2a7.7 7.7 0 0 1-4.5-2.9h-1.2s-3.3-1-3.7-2.8-1.4-7.5-1.4-9.1a60.1 60.1 0 0 1 1-6.6s.9.1.9-14.9l1 15.2s-3 3.8 1.6 4.4a17.1 17.1 0 0 1 2.8 7.6s.4 2 1.5 2 .1 2.3.1 2.3-.6 2.1 3.3 2.1a38 38 0 0 1 6.5.5h2.4l.9-.9 1.6.3.8-.8.6-.6 1.4-.2a2.2 2.2 0 0 0-1.3-1.9l-4.3-2.3s-1.4-.9-4.9-.3l-1.3-1.3-2.8-9.4.7-5-.3-10.1 1.7-16.4 2-6.5 3.9-6.1a74.9 74.9 0 0 0 4.1-12.7c1.3-5.9.5-5 .5-5a80.7 80.7 0 0 1 10.7-19.8s13.3-2.9 18.3-8.7l2.4-.8h2.2l1.3-1.3s4.6 1.5 6.5-1.9l5.1-3.6 2-4.9s1.9-2.8 0-4.7z"/><path fill="#fff" d="M184.5 321a4.6 4.6 0 0 1-3 .2c-1.4-.4.8-3.2.8-3.2l.7-.2 1.8 2.4zm-19.2-1.4l.4-3.7-1.8-.6a4.8 4.8 0 0 1 2.2-4.4 1.8 1.8 0 0 0 0-2.2 8.6 8.6 0 0 1-2.2 2.2c-1.1.4-3.1 1.7-1.6 4.8l-1.1 1.5.6 2 2.5.7z"/></svg>