<svg xmlns="http://www.w3.org/2000/svg" width="4in" height="4in" viewBox="0 0 288 288"><path d="M124.6 66.9L73.2 104l-3.3-3.3 65.6-47.6 42.6 21.3V63.5h14.7v17.3l25.3 11.8-10.9 16.4-82.6-42.1z"/><path d="M114.1 96.5H145a3.5 3.5 0 0 1 1.9-1l2.4-1.9a3.2 3.2 0 0 1 .7-1.7c.9-.9 3.1-.5 3.1-.5s2.3.8 2.3 2.4-1.4 3.8-2.8 3.8l-.9 1a5.6 5.6 0 0 1 0 2.3v1.1l.9 1s2.7.7 2.7 2.7a3 3 0 0 1-2 2.6s-2.4.7-3.1 0a3.7 3.7 0 0 1-.7-2.2l-.6-1.4-2.4-1.2h-32.7l-1.9.9-1 1s-.7 2.5-2 2.5a7.2 7.2 0 0 1-2.6-.6 5.4 5.4 0 0 1-.7-2.2 4.4 4.4 0 0 1 .5-1.9l1-1v-4.1l-.6-.7a1.8 1.8 0 0 1-1.4-2.1 4.6 4.6 0 0 1 1.1-2.6 4.2 4.2 0 0 1 3.4-.7c1.9.5 1.9 1.6 1.9 1.6l.6 1.6z"/><path fill="#2d3083" d="M49 155.2c2.8 2.2 7.5 5.9 12.1 5.9a6.3 6.3 0 0 0 4.3-1.3 2.4 2.4 0 0 0-.1-3.6c-3.7-3.2-14.8-7.5-14.8-14.7 0-9.6 10.9-17.8 17.1-20.5 3.4-1.4 6.7-1.9 9 .2a11.5 11.5 0 0 1 3.5 5.8c.7 2.8-.9 5.6-2 7s-3.8 6.1-4.8 7.8-.8 1-1.6.2-2.1-3.5-.7-6.8 6.8-9.1 5.1-10.9-19.6 8.3-20 17c-.2 4.6 8.8 8.3 12.7 11.1s2.3 5.1-.8 8.7-16.4 6.1-26.2-5.8c-.8-.9-.5-1.4.1-1.6a8 8 0 0 1 7.1 1.5zm50.5-19.1c.7-.9 1.2-1.1 1.7-.4s1.6 4.2-.1 7.7-5 8.4-6.7 12.1-1.8 7 .6 6.8 6.7-4.9 9.1-9.7c.4-.6.9-.7 1.2-.1a7.2 7.2 0 0 1-.7 4.4c-1.8 3.8-6.2 7.7-10 7.5s-5.8-2.5-5.8-5.8c-2.2 2.9-5.4 5.5-8.7 5.5-6.5 0-7.9-8.9-2.1-17.4s11.2-11.4 14.7-11.4 4.4 2.3 4.3 5zm-5.6 2.8c-2.2-.2-7.3 4.4-11.2 10.6s-4.6 12.2-1.9 12.3 6.5-4.4 10.1-10.6 5.1-12 3-12.3z"/><path fill="#2d3083" d="M126.6 135.7c.8-.8 1.2-.7 1.3.2s-.6 3.3-2.8 6.1c-3.5 4.4-9.9 11.2-16.6 21.8-.4.6-.7 1-1.4.7-2.7-1.3-3.7-2.7-3.5-6.4a113.2 113.2 0 0 1 4.5-22.2c.3-.8.9-1.1 1.4-.6 2.3 2 2.7 4.6 1.7 8.8s-2.6 9.3-3.6 17c4.9-8.2 14.3-20.5 19-25.4zm6.5 26.5c5.8.3 10.9-5.3 13.9-10a.6.6 0 0 1 1.2.1c.3.6 0 2.5-1.2 4.4a18 18 0 0 1-13.7 7.5c-8.9.2-12-8.6-7.5-17.6s11.7-12.7 15.2-10.7a13.7 13.7 0 0 1 4.2 3.7c1.2 1.7.7 5.9-2.3 9.5s-8.1 6-13 2c-2.2 6.5-.6 10.9 3.2 11.1zm5.8-16.1c2.2-3 3.7-6.6 2.8-7.4s-7.3 3-10.6 9.7l-.6 1.2c3.5 2.2 6.3-.9 8.4-3.5zm23 17.8c-.3.7-.7.7-1.2.2s-1.7-3.5-.1-7.7c2.6-6.6 13.9-25.3 21.5-35.6.6-.9 1.3-1.2 2.2-.4 2.7 2.4 3.5 4.8 1.7 10.4s-4.8 14.9-7.4 24.7c7.6-12.5 17.8-22.9 25.5-34.9.6-1 1.2-1 2-.2 2.8 2.9 2.1 6.7.2 10.2-4.9 9.1-11.9 23.3-15.4 33.3-.2.7-.5.7-1.1.2s-1.9-3-.7-7.6 5.5-13.9 10-22.7c-7.9 9.7-16.1 20.4-21.1 29.8-.4.7-.7.9-1.3.5-2.3-1.7-3.3-4.2-2.6-8.5a172.5 172.5 0 0 1 6-23c-6.2 9.4-14.1 22-18.2 31.3zm48.4-1.7c5.8.3 10.9-5.3 13.9-10a.6.6 0 0 1 1.2.1c.3.6.1 2.5-1.2 4.4a17.8 17.8 0 0 1-13.7 7.5c-8.9.2-12-8.6-7.4-17.6s11.6-12.7 15.1-10.7a12.6 12.6 0 0 1 4.2 3.7c1.2 1.7.7 5.9-2.3 9.5s-8.1 6-13 2c-2.2 6.5-.5 10.9 3.2 11.1zm5.8-16.1c2.2-3 3.8-6.6 2.8-7.4s-7.3 3-10.6 9.7l-.6 1.2c3.5 2.2 6.3-.9 8.4-3.5z"/><path d="M82.7 181.2h3.1a9.3 9.3 0 0 1 4.1.6 6.1 6.1 0 0 1 3.7 6c0 3.7-2.3 6.3-6.4 6.3h-4.5zm3.2 11.6c2.4 0 4-.2 5.2-1.6a5.3 5.3 0 0 0 1.1-3.4 5 5 0 0 0-1.1-3.4c-1.2-1.6-3-2-5.8-2H84v10.4zm23.2-5.2a6.7 6.7 0 0 1-6.8 6.8 6.8 6.8 0 1 1 6.8-6.8zm-12.3.1a5.5 5.5 0 1 0 5.5-5.6 5.5 5.5 0 0 0-5.5 5.6zm28.1.2c0 4.1-2.6 6.5-6.5 6.5a6.9 6.9 0 0 1-7.3-6.8 6.8 6.8 0 0 1 7.1-6.7 8.2 8.2 0 0 1 6 2.5l-1 .9a7.3 7.3 0 0 0-4.9-2.2 5.7 5.7 0 0 0-5.8 5.5 5.8 5.8 0 0 0 6 5.6 4.8 4.8 0 0 0 5-4h-4.1v-1.3zm7.5-6.7h3a10.5 10.5 0 0 1 3 .3 3.1 3.1 0 0 1 2.1 3.1 2.9 2.9 0 0 1-.3 1.6c-.7 1.4-2 1.9-4.1 1.9l4.6 6h-1.6l-4.6-6h-.8v6h-1.3zm1.3 1.2v4.4h2.2a4.3 4.3 0 0 0 2.5-.5 2.1 2.1 0 0 0 .8-1.7c0-1.2-.9-2.2-2.8-2.2zm9.6-1.2h7.4v1.2h-6.1v4.1h6.1v1.2h-6.1v5.1h6.1v1.3h-7.4zm14.6 2.6c-.7-.9-1.3-1.6-2.4-1.6a1.6 1.6 0 0 0-1.7 1.6 2.6 2.6 0 0 0 1.1 2c2.5 1.8 4.3 3.1 4.3 5.2a3.6 3.6 0 0 1-3.7 3.4c-1.8 0-2.9-1-3.9-2.7l1.1-.7c.8 1.4 1.7 2.2 2.7 2.2a2.3 2.3 0 0 0 2.4-2.2c0-1.5-1.3-2.3-4.3-4.6a3.6 3.6 0 0 1-1.1-2.5 3 3 0 0 1 3.2-3c1.6 0 2.5.9 3.4 2.1zm15 .5a5.7 5.7 0 0 0-4.6-2.2 5.5 5.5 0 0 0-5.6 5.6 5.4 5.4 0 0 0 5.7 5.5 5.7 5.7 0 0 0 4.5-2.1l1.1.8a7.3 7.3 0 0 1-5.7 2.5 6.6 6.6 0 0 1-7-6.8 7.1 7.1 0 0 1 12.7-4zm11-3.1h1.3v8.4c0 3-1.7 4.8-4.3 4.8s-4.3-1.8-4.3-4.8v-8.4h1.3v8.2a3.7 3.7 0 0 0 .7 2.7 2.7 2.7 0 0 0 2.3 1.1 2.8 2.8 0 0 0 2.3-1.1 3.7 3.7 0 0 0 .7-2.7zm4.4 0h7.4v1.2h-6.1v4.1h6.1v1.2h-6.1v5.1h6.1v1.3h-7.4zm-63 23.4h3.7v.7h-3v2h3v.6h-3v2.6h3v.6h-3.7zm7.3 1.3c-.3-.4-.6-.8-1.2-.8a.8.8 0 0 0-.8.8 1.2 1.2 0 0 0 .5 1c1.2.9 2.1 1.6 2.1 2.6a1.8 1.8 0 0 1-1.8 1.8 2 2 0 0 1-1.9-1.4l.5-.3a1.7 1.7 0 0 0 1.4 1 1.2 1.2 0 0 0 1.2-1.1c0-.7-.7-1.1-2.2-2.3a1.5 1.5 0 0 1-.5-1.2 1.5 1.5 0 0 1 1.5-1.5 1.9 1.9 0 0 1 1.7 1zm1.4-.6v-.7h3.5v.7h-1.4v5.8h-.7v-5.8zm4.9 5.4a.5.5 0 0 1-.5.5.6.6 0 0 1-.6-.5.6.6 0 0 1 .6-.6.6.6 0 0 1 .5.6zm5.9-2.3c.7-.8 1.2-1.3 1.2-2a1.4 1.4 0 0 0-1.4-1.3 1.4 1.4 0 0 0-1.5 1.6h-.7a2.2 2.2 0 0 1 2.2-2.2 1.9 1.9 0 0 1 2 1.9 3.2 3.2 0 0 1-1.3 2.3l-1.6 1.8h3v.6h-4.4zm2.6-1.9a2.1 2.1 0 0 1 2.1-2 2.2 2.2 0 0 1 1.9 1.3 6.4 6.4 0 0 1 .3 2 6.6 6.6 0 0 1-.3 2.1 2.1 2.1 0 0 1-1.9 1.4 2.1 2.1 0 0 1-1.7-1 4.9 4.9 0 0 1-.5-2.5 5.7 5.7 0 0 1 .1-1.3zm.9 3.4a1.4 1.4 0 0 0 1.2.8c.9 0 1.6-.9 1.6-2.8s-.7-2.8-1.6-2.8a1.3 1.3 0 0 0-1.2.7 4.1 4.1 0 0 0-.4 2.1 4 4 0 0 0 .4 2zm5-4.6l.3-.7h1.3v6.5h-.6v-5.8zm6.4 3.1c.8-.8 1.2-1.3 1.2-2a1.3 1.3 0 0 0-1.4-1.3 1.6 1.6 0 0 0-1.5 1.6h-.6a2.1 2.1 0 0 1 2.1-2.2 1.9 1.9 0 0 1 2 1.9 3.5 3.5 0 0 1-1.2 2.3l-1.7 1.8h3v.6h-4.4z"/><path fill="#2d3083" d="M106.4 206.3h11.7v2.93h-11.7zm62.2 0h11.7v2.93h-11.7z"/></svg>