<svg xmlns="http://www.w3.org/2000/svg"><symbol id="facebook" viewBox="0 0 512 512"><path d="M469.333 0H42.667C18.773 0 0 18.773 0 42.667v426.667C0 493.227 18.773 512 42.667 512h426.667C493.227 512 512 493.227 512 469.333V42.667C512 18.773 493.227 0 469.333 0zM256 494.933V324.267h-68.267V256H256v-59.733c0-48.64 37.547-89.6 85.333-93.867h76.8v68.267h-68.267c-14.507 0-25.6 11.093-25.6 25.6V256H409.6v68.267h-85.333v170.667H256zm238.933-25.6c0 14.507-11.093 25.6-25.6 25.6h-128v-153.6h85.333v-102.4h-85.333v-42.667c0-5.12 3.413-8.533 8.533-8.533H435.2v-102.4h-94.72c-57.173 5.12-101.547 53.76-101.547 110.933v42.667h-68.267v102.4h68.267v153.6H42.667c-14.507 0-25.6-11.093-25.6-25.6V42.667c0-14.507 11.093-25.6 25.6-25.6h426.667c14.507 0 25.6 11.093 25.6 25.6v426.666z"/></symbol><symbol id="instagram" viewBox="0 0 512 512"><path d="M366.08 0H145.92C65.707 0 0 65.707 0 145.92v220.16C0 446.293 65.707 512 145.92 512h220.16C446.293 512 512 446.293 512 366.08V145.92C512 65.707 446.293 0 366.08 0zm128.853 366.08c0 70.827-58.027 128.853-128.853 128.853H145.92c-70.827 0-128.853-58.027-128.853-128.853V145.92c0-70.827 58.027-128.853 128.853-128.853h220.16c70.827 0 128.853 58.027 128.853 128.853v220.16z"/><path d="M366.08 51.2H145.92c-52.053 0-94.72 42.667-94.72 94.72v220.16c0 52.053 42.667 94.72 94.72 94.72h220.16c52.053 0 94.72-42.667 94.72-94.72V145.92c0-52.053-42.667-94.72-94.72-94.72zm77.653 314.88c0 42.667-34.987 77.653-77.653 77.653H145.92c-42.667 0-77.653-34.987-77.653-77.653V145.92c0-42.667 34.987-77.653 77.653-77.653h220.16c42.667 0 77.653 34.987 77.653 77.653v220.16z"/><path d="M256 119.467c-75.093 0-136.533 61.44-136.533 136.533S180.907 392.533 256 392.533 392.533 331.093 392.533 256 331.093 119.467 256 119.467zm0 256c-65.707 0-119.467-53.76-119.467-119.467S190.293 136.533 256 136.533 375.467 190.293 375.467 256 321.707 375.467 256 375.467z"/><path d="M256 162.133A93.597 93.597 0 0 0 162.133 256c0 52.053 41.813 93.867 93.867 93.867s93.867-41.813 93.867-93.867-41.814-93.867-93.867-93.867zm0 170.667c-42.667 0-76.8-34.133-76.8-76.8 0-42.667 34.133-76.8 76.8-76.8 42.667 0 76.8 34.133 76.8 76.8 0 42.667-34.133 76.8-76.8 76.8zM392.533 93.867c-14.507 0-25.6 11.093-25.6 25.6s11.093 25.6 25.6 25.6c14.507 0 25.6-11.093 25.6-25.6s-11.093-25.6-25.6-25.6z"/></symbol><symbol id="twitter" viewBox="0 0 511.27 511.27"><path d="M508.342 94.243c-2.603-2.603-6.942-3.471-10.414-2.603l-17.356 6.075c10.414-12.149 17.356-25.166 21.695-37.315 1.736-4.339.868-7.81-1.736-10.414-2.603-2.603-6.942-3.471-10.414-1.736-24.298 10.414-45.125 19.092-62.481 24.298 0 .868-.868 0-1.736 0-13.885-7.81-47.729-25.166-72.027-25.166-61.614.868-111.078 52.936-111.078 116.285v3.471c-90.251-17.356-139.715-43.39-193.519-99.797L40.6 58.663l-5.207 10.414c-29.505 56.407-8.678 107.607 25.166 142.319-15.62-2.603-26.034-7.81-35.58-15.62-3.471-2.603-7.81-3.471-12.149-.868-3.471 1.736-5.207 6.942-4.339 11.281 12.149 40.786 42.522 73.763 75.498 93.722-15.62 0-28.637-1.736-41.654-10.414-3.471-1.736-8.678-1.736-12.149.868s-5.207 6.942-3.471 11.281c15.62 44.258 45.993 67.688 94.59 73.763-25.166 14.753-58.142 26.902-109.342 27.77-5.207 0-9.546 3.471-11.281 7.81-1.736 5.207 0 9.546 3.471 13.017 31.241 25.166 100.664 39.919 186.576 39.919 152.732 0 277.695-136.244 277.695-303.729v-2.603c19.092-9.546 34.712-27.77 42.522-52.936.867-3.472-.001-7.811-2.604-10.414zm-52.068 49.464l-5.207 1.736v14.753c0 157.939-117.153 286.373-260.339 286.373-78.97 0-131.905-13.017-160.542-26.902 59.878-4.339 94.59-23.431 121.492-44.258l21.695-15.62h-26.034c-49.464 0-79.837-13.885-97.193-46.861 15.62 5.207 32.108 5.207 50.332 4.339 6.942-.868 13.885-.868 20.827-.868l2.603-17.356c-32.976-9.546-72.027-39.051-91.119-78.969 17.356 7.81 36.447 9.546 53.803 9.546h26.902L91.8 213.999c-18.224-13.017-72.027-59.01-45.993-124.963 55.539 54.671 108.475 79.837 203.932 97.193l10.414 1.736v-24.298c0-53.803 41.654-98.061 93.722-98.929 19.959-.868 52.936 17.356 62.481 22.563 5.207 2.603 10.414 3.471 15.62 1.736 13.017-4.339 28.637-10.414 45.993-17.356-7.81 13.017-18.224 25.166-32.108 36.448-3.471 2.603-4.339 7.81-2.603 12.149 1.736 4.339 6.942 6.075 11.281 4.339l33.844-11.281c-6.075 11.28-15.621 24.297-32.109 30.371z"/></symbol></svg>